<svg width="145" height="64" viewBox="0 0 145 64" fill="none" xmlns="http://www.w3.org/2000/svg">
<path d="M125.712 40.8464L111.922 40.3587L125.712 40.8464Z" fill="#174038"/>
<path d="M115.439 54.0709C112.292 51.4311 109.145 48.7978 105.998 46.1711L115.439 54.0709Z" fill="#174038"/>
<path d="M102.191 60.7404L97.0613 48.3738L102.191 60.7404Z" fill="#174038"/>
<path d="M89.6697 60.3106L88.6359 47.7489L89.6697 60.3106Z" fill="#174038"/>
<path d="M80.2666 53.7193L82.5488 44.8052L80.2666 53.7193Z" fill="#174038"/>
<path d="M76.6804 48.3345L77.8702 41.9366L76.6804 48.3345Z" fill="#174038"/>
<path d="M101.212 4.64383C100.939 4.64383 100.673 4.64383 100.413 4.64383C114.964 5.05345 126.628 16.9715 126.628 31.6204C126.628 42.368 116.407 58.7724 99.6518 58.5969C86.9145 58.4603 75.6012 48.7855 73.319 35.463C72.9289 33.2588 72.7533 31.991 72.6753 31.2107C72.6363 30.9181 72.5387 29.8648 72.2657 28.4994C72.2397 28.3564 72.2071 28.2198 72.1681 28.0898C69.3203 14.6893 57.4023 4.64383 43.1435 4.64383C26.7586 4.64383 13.4557 17.9273 13.4557 34.3317C13.4557 50.7165 26.7586 64 43.1435 64C43.4166 64 43.6832 64 43.9433 64C29.3919 63.5904 17.7275 51.6723 17.7275 37.0235C17.7275 26.3343 27.812 9.89089 44.704 10.0469C58.0264 10.1835 69.6324 20.6386 71.1928 34.4877C71.6025 37.16 71.8951 39.1106 71.9731 39.5007C72.0316 39.8323 72.0901 40.1639 72.0901 40.1639C72.1161 40.2939 72.1421 40.424 72.1681 40.554C75.0355 53.9545 86.9535 64 101.212 64C117.597 64 130.881 50.7165 130.881 34.3317C130.881 17.9273 117.597 4.64383 101.212 4.64383Z" fill="#174038"/>
<path d="M101.212 4.64383C100.939 4.64383 100.673 4.64383 100.413 4.64383C114.964 5.05345 126.628 16.9715 126.628 31.6204C126.628 42.368 116.407 58.7724 99.6518 58.5969C86.9145 58.4603 75.6012 48.7855 73.319 35.463C72.9289 33.2588 72.7533 31.991 72.6753 31.2107C72.6363 30.9181 72.5387 29.8648 72.2657 28.4994C72.2397 28.3564 72.2071 28.2198 72.1681 28.0898C69.3203 14.6893 57.4023 4.64383 43.1435 4.64383C26.7586 4.64383 13.4557 17.9273 13.4557 34.3317C13.4557 50.7165 26.7586 64 43.1435 64C43.4166 64 43.6832 64 43.9433 64C29.3919 63.5904 17.7275 51.6723 17.7275 37.0235C17.7275 26.3343 27.812 9.89089 44.704 10.0469C58.0264 10.1835 69.6324 20.6386 71.1928 34.4877C71.6025 37.16 71.8951 39.1106 71.9731 39.5007C72.0316 39.8323 72.0901 40.1639 72.0901 40.1639C72.1161 40.2939 72.1421 40.424 72.1681 40.554C75.0355 53.9545 86.9535 64 101.212 64C117.597 64 130.881 50.7165 130.881 34.3317C130.881 17.9273 117.597 4.64383 101.212 4.64383Z" fill="#174038"/>
<path d="M37.8216 58.5173C33.0621 57.0543 28.7709 53.9529 26.001 49.7982C20.2078 41.1571 21.6513 29.0245 28.3222 21.2807C33.3547 15.2729 41.6447 12.4446 49.3105 13.81C54.3625 14.6487 59.2584 16.8334 63.0231 20.3444C67.6459 24.7332 70.2402 30.6045 72.7564 36.3002C73.7122 38.5823 74.551 40.8645 75.5848 43.1077C77.1062 46.4627 78.8032 49.7397 80.6173 52.9386C79.9151 51.9438 79.2129 50.91 78.5497 49.8762C76.5211 46.7748 74.6875 43.5563 73.088 40.2013C71.5666 36.8463 69.9086 33.5889 68.1141 30.3704C65.1297 25.0258 61.4626 20.5785 55.7084 18.0817C46.9503 14.0635 36.5537 15.2924 29.9997 22.7241C25.3574 27.9907 23.1142 35.5589 24.4991 42.5225C25.7865 49.7787 31.0726 55.7084 37.8216 58.5173Z" fill="#174038"/>
<path d="M104.493 9.40272C113.368 10.8852 120.37 17.6537 122.126 26.5483C123.862 35.2869 120.273 44.8253 113.348 50.4234C106.053 56.3337 96.5342 56.6848 88.1272 53.0372C83.0947 50.9306 78.7449 47.3415 75.585 42.9137C73.6929 40.3194 72.152 37.4521 71.1181 34.4092C72.4836 37.2765 74.2391 39.9488 76.2872 42.3675C78.3158 44.7277 80.6565 46.8929 83.2898 48.5704C86.7813 50.755 90.702 52.2765 94.7787 52.9202C107.828 55.1633 118.81 45.742 120.429 32.9462C121.755 22.0425 115.006 12.4456 104.493 9.40272Z" fill="#174038"/>
<path d="M102.579 15.8189C110.264 17.1453 115.823 23.9138 115.648 31.7356C115.472 37.6654 112.234 43.3416 107.397 46.7161C101.545 50.8123 94.4841 50.2856 88.0862 48.0815C81.8248 46.1504 76.2071 42.0347 72.423 36.7096C74.5686 39.1283 77.0264 41.2935 79.7182 43.01C83.5803 45.5652 88.0276 47.0087 92.514 47.9059C101.077 49.6224 108.548 46.2674 112.527 38.4261C117.228 29.1999 112.546 18.6277 102.579 15.8189Z" fill="#174038"/>
<path d="M41.0249 53.1534C34.3344 51.9636 29.0678 46.5605 28.151 39.7724C27.3123 33.5501 30.0236 26.9961 34.9391 23.095C38.3331 20.3837 42.5073 19.2914 46.7986 19.74C49.0808 19.9546 51.3434 20.5787 53.4891 21.359C55.6347 22.1197 57.7413 23.0365 59.6529 24.2653C66.2069 28.3225 70.9663 34.9545 73.5801 42.1131C72.0391 38.8752 70.1665 35.8323 67.9234 33.082C64.0612 28.2835 58.9117 24.5384 53.0209 22.7049C48.9637 21.3005 44.4969 20.5397 40.3617 21.9051C33.3591 24.1873 28.8142 31.7556 29.2239 38.9922C29.614 45.7802 34.4904 51.3589 41.0249 53.1534Z" fill="#174038"/>
<path d="M17.7858 44.9023L31.869 47.165L17.7858 44.9023Z" fill="#174038"/>
<path d="M14.4676 35.1491L28.5507 37.4118L14.4676 35.1491Z" fill="#174038"/>
<path d="M17.0045 27.1529L31.0877 29.4156L17.0045 27.1529Z" fill="#174038"/>
<path d="M22.735 17.6938L35.8819 23.253L22.735 17.6938Z" fill="#174038"/>
<path d="M35.8853 9.16871C37.9659 12.8098 40.0465 16.4509 42.1271 20.092L35.8853 9.16871Z" fill="#174038"/>
<path d="M50.0038 6.51565L50.3549 20.7939L50.0038 6.51565Z" fill="#174038"/>
<path d="M61.5722 11.3343L57.8661 23.9935L61.5722 11.3343Z" fill="#174038"/>
<path d="M68.8698 20.3061L63.2912 28.1279L68.8698 20.3061Z" fill="#174038"/>
<path d="M71.2285 26.959L67.854 32.5182L71.2285 26.959Z" fill="#174038"/>
<path d="M121.521 13.265C116.969 14.8905 112.411 16.5225 107.847 18.161L121.521 13.265Z" fill="#174038"/>
<path d="M127.258 21.3962L113.272 24.2635L127.258 21.3962Z" fill="#174038"/>
<path d="M127.705 29.7865L114.754 32.5368L127.705 29.7865Z" fill="#174038"/>
<path d="M17.7503 8.87514C17.7503 13.7711 13.7906 17.7503 8.87514 17.7503C3.97918 17.7503 0 13.7711 0 8.87514C0 3.95968 3.97918 0 8.87514 0C13.7906 0 17.7503 3.95968 17.7503 8.87514Z" fill="#174038"/>
<path d="M144.148 8.87514C144.148 13.7711 140.188 17.7503 135.273 17.7503C130.377 17.7503 126.397 13.7711 126.397 8.87514C126.397 3.95968 130.377 0 135.273 0C140.188 0 144.148 3.95968 144.148 8.87514Z" fill="#174038"/>
</svg>
