<svg width="161" height="48" viewBox="0 0 161 48" fill="none" xmlns="http://www.w3.org/2000/svg">
<path fill-rule="evenodd" clip-rule="evenodd" d="M47.9209 16.1663C47.9209 20.4384 47.4326 33.8652 47.4326 33.8652C47.4326 36.4284 48.2871 37.6491 50.7283 37.6491V38.7476H41.2075V37.6491C43.6487 37.6491 44.9914 36.5505 44.9914 33.8652L45.8458 12.0162C45.1135 10.3074 44.3811 9.69707 42.5502 9.57501V8.47646H49.8739L57.6858 28.8607L65.6198 8.47646H72.2111V9.45295C70.3801 9.45295 69.2816 10.3074 69.2816 12.3824L70.136 33.499C70.136 36.6726 70.7463 37.527 73.3096 37.527V38.6255H62.202V37.527C64.3991 37.527 65.3756 36.7946 65.2536 33.499C65.2536 33.499 64.7653 18.7296 64.6433 16.0442L59.2726 30.6916C58.5402 32.5225 57.8078 34.7196 57.3196 37.0387L55.6107 37.1608C55.1225 35.574 54.0239 32.6446 54.0239 32.6446C54.0239 32.6446 49.5077 20.3164 47.9209 16.1663Z" fill="#9FA8A6"/>
<path fill-rule="evenodd" clip-rule="evenodd" d="M38.8884 38.8697C38.2781 38.7477 37.7898 38.7477 37.1795 38.7477C36.081 38.7477 34.006 39.358 31.5647 39.358C22.166 39.358 15.3306 33.7432 15.3306 23.368C15.3306 14.5796 21.7999 7.86621 31.6868 7.86621C34.006 7.86621 36.5692 8.35446 38.7663 9.20888C39.2546 8.72064 39.3766 8.47652 39.7428 8.11034H40.5973C40.4752 9.69713 39.8649 14.8237 39.8649 14.8237H39.0105C38.4001 11.7722 36.8134 9.81919 31.8089 9.81919C25.8279 9.81919 20.3351 14.5796 20.3351 23.368C20.3351 33.2549 25.9499 37.6491 32.175 37.6491C36.203 37.6491 38.6443 35.3299 40.2311 32.5225L41.2076 33.0108L38.8884 38.8697Z" fill="#9FA8A6"/>
<path fill-rule="evenodd" clip-rule="evenodd" d="M11.6688 14.0913H10.6923C10.5702 11.406 9.71581 10.5515 7.51871 10.5515H3.36864V33.1328C3.36864 36.9167 4.101 37.6491 6.54222 37.6491V38.7476H-4.19914V37.6491C-1.75792 37.6491 -1.02555 36.9167 -1.02555 33.0108V10.5515H-5.17562C-7.86097 10.5515 -8.34921 11.2839 -9.08158 14.0913H-10.0581L-9.3257 7.62207L-8.59333 7.74413C-8.34921 8.4765 -7.73891 8.4765 -6.03006 8.4765H7.8849C10.4482 8.4765 11.0585 8.4765 11.6688 7.62207H12.5232L11.6688 14.0913Z" fill="#9FA8A6"/>
<path fill-rule="evenodd" clip-rule="evenodd" d="M-18.7244 39.48C-20.6773 39.48 -22.2641 39.2359 -23.4848 38.7477C-24.5833 38.5035 -25.4377 38.0153 -25.926 37.7712C-26.5363 38.3815 -26.9025 39.1138 -26.9025 39.1138L-27.7569 38.8697L-27.1466 31.9122L-26.1701 32.0343C-25.5598 35.2079 -23.4848 37.5271 -18.9685 37.5271C-15.5508 37.5271 -13.2316 34.5976 -13.2316 31.5461C-13.2316 28.9828 -14.2081 27.6401 -17.7479 25.0768C-18.8464 24.3445 -19.945 23.7341 -20.7994 23.1238C-23.973 21.1709 -25.926 18.8517 -25.926 15.0678C-25.926 10.7957 -22.3862 7.86621 -17.6258 7.86621C-14.9405 7.86621 -13.1096 8.72064 -12.6213 8.96476L-11.6448 7.86621L-10.9125 7.98827L-11.6448 14.2134L-12.4993 13.9693C-12.4993 11.0398 -14.2081 9.81919 -17.1376 9.81919C-19.8229 9.81919 -21.898 11.2839 -21.898 13.9693C-21.898 16.4105 -20.067 17.9973 -17.8699 19.462C-16.7714 20.1944 -15.917 20.8047 -14.9405 21.2929C-9.93598 24.8327 -8.71537 27.1519 -8.71537 30.6916C-8.71537 35.6961 -12.6213 39.48 -18.7244 39.48Z" fill="#9FA8A6"/>
<path fill-rule="evenodd" clip-rule="evenodd" d="M-35.2026 14.0913H-36.3012C-36.3012 11.528 -37.3997 10.5515 -39.7189 10.5515H-46.1881V21.9032H-42.038C-39.8409 21.9032 -39.4747 20.8047 -39.1086 18.8517H-38.1321V26.9077H-39.1086C-39.3527 24.7106 -39.8409 23.8562 -42.1601 23.8562H-46.1881V33.499C-46.1881 37.0388 -45.3337 37.527 -43.0145 37.527V38.6256H-54V37.527C-51.3147 37.527 -50.8264 36.7946 -50.8264 33.499V12.3824C-50.8264 10.4295 -51.6808 9.45298 -54 9.45298V8.47649H-38.9865C-36.4232 8.47649 -35.8129 8.35443 -35.4467 7.5H-34.4702L-35.2026 14.0913Z" fill="#9FA8A6"/>
<path fill-rule="evenodd" clip-rule="evenodd" d="M119.937 15.8001V33.1328C119.937 36.9167 120.791 37.6491 123.11 37.6491V38.7476H106.144V37.6491C107.487 37.6491 108.585 37.1608 108.585 36.3064C108.585 35.6961 108.463 34.7196 108.097 33.7431L106.754 29.593H97.3556C97.2335 30.2033 95.5246 34.9637 95.5246 36.1843C95.5246 37.2829 96.8673 37.6491 97.7217 37.6491V38.7476H89.7878V37.6491C91.2525 37.6491 92.351 37.527 93.3275 34.4755L100.651 11.0397C100.163 10.0633 99.6747 9.69707 98.6982 9.57501V8.47646H105.167L112.979 33.0107C113.712 35.574 114.444 36.9167 115.543 37.527C117.251 36.9167 117.74 36.4284 117.74 33.0107V12.3824C116.397 10.6736 116.275 9.45295 113.834 9.45295V8.47646H121.157L133.241 28.9827V13.3589C133.241 10.1853 132.509 9.45295 130.068 9.45295V8.47646H146.18V9.45295C145.203 9.45295 144.349 9.94119 144.349 10.9177C144.349 11.65 144.593 12.3824 144.959 13.2368L149.598 23.1238L154.114 13.481C154.846 12.1383 154.968 11.528 154.968 10.7956C154.968 9.94119 154.358 9.45295 153.137 9.45295V8.47646H160.705V9.45295C158.874 9.45295 157.654 11.1618 156.799 13.2368L150.94 25.3209V33.2549C150.94 36.6726 151.795 37.527 154.114 37.527V38.6255H143.128V37.527C145.448 37.527 146.302 36.6726 146.302 33.2549V26.5415L139.955 13.1148C138.856 10.5515 138.368 9.94119 137.636 9.57501C136.171 10.1853 135.805 11.1618 135.805 13.481V35.574C135.805 35.574 135.927 37.2829 136.049 39.3579L134.218 39.48L119.937 15.8001ZM101.994 14.4575L97.9659 27.518H106.266L101.994 14.4575Z" fill="#9FA8A6"/>
<path fill-rule="evenodd" clip-rule="evenodd" d="M84.173 27.518C84.173 27.518 82.8304 27.518 81.9759 27.518V33.7431C81.9759 36.9167 82.8304 37.6491 85.2716 37.6491V38.7476H74.164V37.6491C76.4832 37.6491 77.3376 36.7946 77.3376 33.621V13.2368C77.3376 10.0633 76.4832 9.45295 74.164 9.45295V8.47646H82.4642C90.5202 8.47646 95.2806 10.9177 95.2806 17.509C95.4026 24.4665 89.6658 27.518 84.173 27.518ZM82.7083 10.5515H81.9759V25.3209H83.3186C88.079 25.3209 90.5202 23.1238 90.5202 17.7531C90.5202 12.2604 88.3231 10.5515 82.7083 10.5515Z" fill="#9FA8A6"/>
<path fill-rule="evenodd" clip-rule="evenodd" d="M34.006 32.8887C28.5133 32.8887 24.8514 28.9827 24.8514 23.3679C24.8514 17.9972 28.7574 13.8472 34.006 13.8472C39.1326 13.8472 43.0385 17.8752 43.0385 23.3679C43.0385 28.7386 39.0105 32.8887 34.006 32.8887ZM34.006 15.6781C30.2221 15.6781 29.0015 19.3399 29.0015 23.49C29.0015 27.3959 30.1 31.3019 34.006 31.3019C37.7899 31.3019 38.8884 27.3959 38.8884 23.3679C38.8884 19.462 37.4237 15.6781 34.006 15.6781Z" fill="#9FA8A6"/>
<path fill-rule="evenodd" clip-rule="evenodd" d="M-29.2216 31.1799V30.2034C-27.7569 30.2034 -27.5127 29.7151 -27.5127 29.349C-27.5127 28.7387 -27.6348 28.3725 -27.7569 27.8842C-27.7569 27.8842 -28.001 26.7857 -28.3672 25.9313H-33.982L-34.5923 27.7622C-34.7143 28.2504 -34.8364 28.6166 -34.8364 29.2269C-34.8364 29.8372 -34.2261 30.2034 -33.3717 30.2034V31.1799H-38.9865V30.2034C-37.5217 30.2034 -37.0335 29.7151 -36.4232 28.2504L-32.1511 15.3119C-32.2731 14.7016 -32.7614 14.3354 -33.6158 14.3354V13.2369H-28.9775C-25.1936 24.2224 -24.2171 27.0298 -24.2171 27.0298C-23.4847 29.471 -22.7524 30.2034 -21.6538 30.2034V31.1799H-29.2216ZM-31.2966 17.2649L-33.4937 24.3445H-28.9775L-31.2966 17.2649Z" fill="#9FA8A6"/>
</svg>
