<svg width="152" height="48" viewBox="0 0 152 48" fill="none" xmlns="http://www.w3.org/2000/svg">
<g clip-path="url(#clip0_155_3346)">
<path fill-rule="evenodd" clip-rule="evenodd" d="M46.8776 0.252017C48.1378 -0.0840225 49.3979 -0.0840225 50.6581 0.0839974C52.0862 0.336027 53.4304 0.756077 54.6065 1.51217C54.6065 2.6043 54.6065 3.69643 54.6065 4.78855C53.8505 4.20048 53.0944 3.69643 52.1702 3.36039C50.9941 2.85633 49.734 2.68831 48.5578 2.77232C47.9697 2.85633 47.3817 2.94034 46.8776 3.27638C46.5416 3.4444 46.2055 3.78044 46.0375 4.11648C45.7855 4.53652 45.7855 5.04058 45.8695 5.54464C45.9535 5.96469 46.2055 6.38474 46.5416 6.63677C46.9616 6.97281 47.5497 7.22484 48.0538 7.39286C49.1459 7.81291 50.238 8.23296 51.4142 8.569C52.3383 8.90504 53.2624 9.4091 54.0185 10.0812C54.7746 10.7533 55.2786 11.5934 55.4466 12.5175C55.6147 13.5256 55.6987 14.5337 55.4466 15.4578C55.1946 16.2979 54.6906 17.138 54.0185 17.7261C53.2624 18.3982 52.4223 18.8182 51.4982 19.0702C50.238 19.4063 48.8939 19.4903 47.6337 19.3223C46.0375 19.1543 44.3573 18.6502 43.0132 17.7261C43.0132 16.634 43.0132 15.4578 43.0132 14.3657C44.6093 15.7098 46.7096 16.5499 48.8098 16.5499C49.734 16.5499 50.6581 16.4659 51.4142 16.0459C51.8342 15.7939 52.2543 15.4578 52.4223 14.9538C52.5903 14.4497 52.5903 13.8616 52.4223 13.2736C52.2543 12.7695 51.8342 12.3495 51.3302 12.0974C50.4901 11.5934 49.5659 11.3413 48.6418 11.0053C47.5497 10.5852 46.4576 10.2492 45.4494 9.66113C44.6934 9.24108 43.9373 8.65301 43.5172 7.89692C42.8451 6.8888 42.6771 5.62865 42.8451 4.45251C42.9291 3.36039 43.5172 2.26826 44.2733 1.59618C45.0294 0.924097 45.9535 0.504047 46.8776 0.252017Z" fill="#174038"/>
<path fill-rule="evenodd" clip-rule="evenodd" d="M121.31 1.09212C122.571 0.252016 124.167 -1.33067e-05 125.679 -1.33067e-05C127.527 -1.33067e-05 129.459 0.504046 131.056 1.51217C131.056 2.60429 131.056 3.69642 131.056 4.78855C130.384 4.28449 129.627 3.78043 128.871 3.44439C127.527 2.85632 126.015 2.6043 124.503 2.85632C123.747 3.02434 122.907 3.36038 122.487 4.03246C122.067 4.87256 122.235 5.96469 122.907 6.55276C123.411 7.05682 124.167 7.30885 124.839 7.47687C125.931 7.89692 127.023 8.23296 128.115 8.65301C129.123 9.07306 130.047 9.57712 130.72 10.3332C131.392 11.0053 131.812 11.9294 131.98 12.8535C132.148 13.8616 132.064 14.9538 131.644 15.9619C131.308 16.802 130.72 17.4741 129.963 18.0621C129.123 18.6502 128.115 18.9862 127.023 19.2383C125.595 19.4903 124.083 19.4063 122.655 19.0702C121.478 18.8182 120.302 18.3982 119.294 17.6421C119.294 16.5499 119.294 15.3738 119.294 14.2817C120.554 15.2898 122.067 16.0459 123.747 16.2979C124.419 16.4659 125.175 16.4659 125.847 16.3819C126.603 16.2979 127.275 16.2139 127.947 15.7939C128.451 15.4578 128.787 15.0378 128.871 14.4497C128.955 13.7776 128.871 13.0215 128.451 12.5175C128.031 12.0974 127.527 11.7614 126.939 11.5093C126.015 11.1733 125.175 10.8373 124.251 10.5012C123.411 10.1652 122.487 9.91316 121.731 9.4091C120.974 8.98905 120.302 8.40098 119.882 7.64489C119.462 6.8888 119.21 6.0487 119.21 5.2086C119.126 4.45251 119.294 3.69642 119.546 2.94033C119.882 2.35226 120.554 1.59618 121.31 1.09212Z" fill="#174038"/>
<path fill-rule="evenodd" clip-rule="evenodd" d="M141.809 0.504046C142.733 0.168007 143.657 -1.33067e-05 144.581 -1.33067e-05C146.514 -1.33067e-05 148.446 0.420036 150.126 1.42816C150.21 1.42816 150.21 1.51217 150.21 1.59618C150.21 2.6883 150.21 3.69642 150.21 4.78855C149.454 4.20048 148.614 3.69642 147.774 3.36038C146.682 2.94033 145.421 2.6883 144.245 2.77231C143.657 2.85632 142.985 2.94033 142.481 3.27637C142.061 3.5284 141.725 3.86444 141.557 4.20048C141.221 5.04058 141.389 6.0487 142.061 6.55276C142.817 7.14083 143.741 7.39286 144.665 7.7289C145.673 8.14895 146.766 8.48499 147.774 8.90504C148.698 9.32509 149.622 9.91316 150.21 10.7533C150.882 11.6774 151.134 12.7695 151.134 13.8616C151.134 14.8697 150.882 15.8779 150.378 16.634C149.79 17.4741 149.034 18.0621 148.11 18.4822C147.102 18.9022 146.093 19.1543 145.001 19.1543C143.825 19.2383 142.649 19.0702 141.473 18.8182C140.381 18.5662 139.373 18.1461 138.449 17.5581C138.449 16.4659 138.449 15.2898 138.449 14.1977C140.045 15.5418 142.145 16.3819 144.245 16.3819C145.169 16.3819 146.093 16.2979 146.934 15.8779C147.354 15.6258 147.69 15.2898 147.858 14.7857C148.026 14.2817 148.026 13.6096 147.858 13.1055C147.69 12.6015 147.27 12.1814 146.766 11.9294C145.925 11.4253 145.001 11.1733 144.077 10.8373C142.985 10.4172 141.893 10.0812 140.885 9.49311C140.045 9.07306 139.373 8.40098 138.869 7.56088C138.365 6.72078 138.197 5.62865 138.197 4.62053C138.197 3.69642 138.533 2.77231 139.121 2.01623C139.877 1.42816 140.801 0.840086 141.809 0.504046Z" fill="#174038"/>
<path fill-rule="evenodd" clip-rule="evenodd" d="M76.0291 -1.33067e-05C80.3136 4.11647 84.5981 8.23296 88.9666 12.3494C88.9666 8.31697 88.9666 4.3685 88.9666 0.336026C89.9747 0.336026 90.9828 0.336026 92.075 0.336026C92.075 6.72078 92.075 13.1055 92.075 19.4903C89.2186 16.634 86.2783 13.8616 83.3379 11.0053C81.9098 9.66113 80.5656 8.31697 79.1374 6.97281C79.1374 11.0053 79.1374 15.1218 79.1374 19.1543C78.1293 19.1543 77.1212 19.1543 76.0291 19.1543C76.0291 12.7695 76.0291 6.38474 76.0291 -1.33067e-05Z" fill="#174038"/>
<path fill-rule="evenodd" clip-rule="evenodd" d="M0 0.336026C1.6802 0.336026 3.27639 0.336026 4.95659 0.336026C6.13273 0.336026 7.30887 0.252016 8.401 0.504046C9.49313 0.672066 10.5853 1.09212 11.4254 1.84821C12.0974 2.43627 12.6015 3.27637 12.7695 4.11647C13.0216 5.12459 13.0216 6.13271 12.6855 7.14083C12.3495 8.14895 11.5934 9.07306 10.5853 9.49311C10.7533 9.57712 10.9213 9.66113 11.0893 9.74514C12.0134 10.2492 12.7695 11.0893 13.1896 12.0134C13.5256 12.7695 13.6096 13.5256 13.5256 14.3657C13.4416 15.3738 13.1056 16.3819 12.4335 17.222C11.6774 18.1461 10.5853 18.7342 9.49313 18.9862C8.48501 19.2383 7.5609 19.2383 6.55278 19.2383C4.36852 19.2383 2.18426 19.2383 0 19.2383C0 12.8535 0 6.55276 0 0.336026ZM3.10837 3.10835C3.10837 4.78855 3.10837 6.55276 3.10837 8.23296C4.36852 8.23296 5.62867 8.23296 6.88882 8.23296C7.64491 8.23296 8.56902 8.06494 9.15709 7.47687C9.57714 7.05682 9.82917 6.46875 9.91318 5.88068C9.99719 5.2086 9.82917 4.53652 9.40912 4.03246C8.98907 3.5284 8.401 3.36038 7.81293 3.19236C7.22486 3.10835 6.55278 3.10835 5.8807 3.10835C4.95659 3.10835 4.03248 3.10835 3.10837 3.10835ZM3.10837 10.8373C3.10837 12.6855 3.10837 14.5337 3.10837 16.2979C4.45253 16.2979 5.79669 16.2979 7.14085 16.2979C7.89694 16.2979 8.65303 16.1299 9.32511 15.7098C9.91318 15.3738 10.2492 14.7857 10.3332 14.1137C10.5013 13.4416 10.4172 12.6855 9.99719 12.0134C9.66115 11.5093 9.15709 11.1733 8.65303 11.0053C8.14897 10.8373 7.64491 10.7533 7.05684 10.7533C5.79669 10.8373 4.45253 10.8373 3.10837 10.8373Z" fill="#174038"/>
<path fill-rule="evenodd" clip-rule="evenodd" d="M20.4144 0.336026C21.5066 0.336026 22.5147 0.336026 23.6068 0.336026C23.6068 3.61241 23.6068 6.80479 23.6068 10.0812C23.6068 11.2573 23.5228 12.3494 23.8588 13.5256C24.1109 14.4497 24.5309 15.2898 25.287 15.8779C26.0431 16.4659 26.9672 16.6339 27.9753 16.6339C28.8994 16.6339 29.9076 16.4659 30.6637 15.8779C31.3357 15.3738 31.7558 14.7017 32.0078 13.9456C32.2598 13.0215 32.3439 12.0974 32.3439 11.1733C32.3439 7.56088 32.3439 3.94845 32.3439 0.420036C33.436 0.420036 34.4441 0.420036 35.5362 0.420036C35.5362 4.20048 35.5362 7.89692 35.5362 11.6774C35.5362 13.1895 35.2842 14.7857 34.5281 16.1299C33.856 17.306 32.8479 18.3141 31.5878 18.8182C30.1596 19.4063 28.5634 19.5743 27.0512 19.4903C25.9591 19.4063 24.951 19.1542 23.9429 18.6502C23.2708 18.3141 22.5987 17.8101 22.0946 17.138C21.5066 16.4659 21.0865 15.5418 20.8345 14.7017C20.4984 13.6936 20.4144 12.6015 20.4144 11.5934C20.4144 7.7289 20.4144 4.03246 20.4144 0.336026Z" fill="#174038"/>
<path fill-rule="evenodd" clip-rule="evenodd" d="M63.7636 0.336026C64.8557 0.336026 65.8638 0.336026 66.9559 0.336026C66.9559 6.63677 66.9559 12.8535 66.9559 19.1543C65.8638 19.1543 64.8557 19.1543 63.7636 19.1543C63.7636 12.8535 63.7636 6.55276 63.7636 0.336026Z" fill="#174038"/>
<path fill-rule="evenodd" clip-rule="evenodd" d="M100.56 0.336026C104.34 0.336026 108.121 0.336026 111.985 0.336026C111.985 1.26014 111.985 2.26826 111.985 3.19236C109.213 3.19236 106.441 3.19236 103.752 3.19236C103.752 4.70454 103.752 6.21672 103.752 7.7289C106.189 7.7289 108.709 7.7289 111.145 7.7289C111.145 8.65301 111.145 9.57712 111.145 10.5012C108.709 10.5012 106.189 10.5012 103.752 10.5012C103.752 12.4335 103.752 14.3657 103.752 16.2979C106.525 16.2979 109.297 16.2979 111.985 16.2979C111.985 17.222 111.985 18.2301 111.985 19.1543C108.205 19.1543 104.424 19.1543 100.56 19.1543C100.56 14.0296 100.56 8.98905 100.56 3.86444C100.56 2.68831 100.476 1.51217 100.56 0.336026Z" fill="#174038"/>
<path fill-rule="evenodd" clip-rule="evenodd" d="M24.867 28.6474C29.1515 32.6799 33.436 36.7123 37.7205 40.7448C37.7205 36.7963 37.7205 32.8479 37.7205 28.8994C38.7287 28.8994 39.7368 28.8994 40.7449 28.8994C40.7449 35.2002 40.7449 41.4169 40.7449 47.7176C36.4604 43.6011 32.1759 39.4847 27.9754 35.3682C27.9754 39.4007 27.9754 43.3491 27.9754 47.3816C26.9673 47.3816 25.9591 47.3816 24.951 47.3816C24.867 41.1649 24.783 34.8641 24.867 28.6474Z" fill="#174038"/>
<path fill-rule="evenodd" clip-rule="evenodd" d="M51.5822 29.3195C52.7583 28.7314 54.1025 28.5634 55.4466 28.6474C57.2108 28.7314 58.975 29.1514 60.4872 30.1596C60.4872 31.2517 60.4872 32.3438 60.4872 33.4359C59.7311 32.8479 58.975 32.3438 58.0509 32.0078C56.8748 31.5037 55.6146 31.3357 54.4385 31.4197C53.8504 31.5037 53.2624 31.5877 52.7583 31.9238C52.3383 32.1758 52.0862 32.5118 51.9182 32.9319C51.6662 33.688 51.8342 34.5281 52.3383 35.0321C52.7583 35.4522 53.3464 35.7042 53.9344 35.9562C55.0266 36.3763 56.2027 36.7963 57.2948 37.1324C58.2189 37.4684 59.059 37.8885 59.8151 38.4765C60.5712 39.0646 61.0753 39.9047 61.3273 40.8288C61.5793 41.7529 61.5793 42.677 61.4113 43.6852C61.2433 44.6093 60.7392 45.4494 60.0672 46.0374C59.3951 46.7095 58.471 47.1296 57.5469 47.4656C56.3707 47.8016 55.1946 47.8857 53.9344 47.8017C52.6743 47.7176 51.4141 47.4656 50.322 46.9616C49.818 46.7095 49.3139 46.5415 48.8938 46.2055C48.8938 45.1133 48.8938 44.0212 48.8938 42.9291C50.49 44.2732 52.5903 45.0293 54.6905 45.1133C55.6146 45.1133 56.5387 45.0293 57.2948 44.6093C57.7989 44.3572 58.1349 43.9372 58.303 43.4331C58.471 42.9291 58.471 42.341 58.219 41.8369C58.0509 41.3329 57.5469 40.9128 57.1268 40.6608C56.2867 40.2408 55.4466 39.9047 54.5225 39.6527C53.5144 39.3166 52.5063 38.9806 51.5822 38.4765C50.7421 38.0565 49.986 37.3844 49.4819 36.6283C48.9779 35.7882 48.7258 34.7801 48.8098 33.856C48.8098 32.9319 49.0619 32.0078 49.5659 31.2517C49.986 30.2436 50.7421 29.6555 51.5822 29.3195Z" fill="#174038"/>
<path fill-rule="evenodd" clip-rule="evenodd" d="M12.6015 28.8994C13.6936 28.8994 14.7017 28.8994 15.7939 28.8994C15.7939 35.1161 15.7939 41.2489 15.7939 47.4656C14.7017 47.4656 13.6936 47.4656 12.6015 47.4656C12.6015 41.2489 12.6015 35.1161 12.6015 28.8994Z" fill="#174038"/>
<path fill-rule="evenodd" clip-rule="evenodd" d="M69.5603 28.8994C70.6524 28.8994 71.6606 28.8994 72.7527 28.8994C72.7527 35.1161 72.7527 41.2489 72.7527 47.4656C71.6606 47.4656 70.6524 47.4656 69.5603 47.4656C69.5603 41.2489 69.5603 35.1161 69.5603 28.8994Z" fill="#174038"/>
<path fill-rule="evenodd" clip-rule="evenodd" d="M81.9938 28.8994C84.4301 28.8994 86.8664 28.8994 89.3027 28.8994C91.2349 28.8994 93.1671 29.4035 94.6793 30.5796C96.0235 31.5037 96.9476 32.8479 97.5357 34.3601C97.9557 35.6202 98.2077 36.9644 98.1237 38.3085C98.1237 40.2407 97.7037 42.173 96.6115 43.7692C95.7715 45.1133 94.4273 46.2054 92.9151 46.7935C91.739 47.2976 90.4788 47.4656 89.2187 47.4656C86.7824 47.4656 84.3461 47.4656 81.9098 47.4656C81.9938 41.2489 81.9938 35.1161 81.9938 28.8994ZM85.1862 31.6717C85.1862 35.9562 85.1862 40.3248 85.1862 44.6093C86.1943 44.6093 87.2024 44.6093 88.2105 44.6093C88.7986 44.6093 89.4707 44.6093 90.0588 44.5253C91.2349 44.3572 92.411 43.9372 93.2511 43.0971C94.0072 42.425 94.5113 41.4169 94.7633 40.4088C95.0154 39.4006 95.0994 38.3925 95.0154 37.3844C94.9313 36.4603 94.7633 35.5362 94.3433 34.6961C94.0072 33.856 93.4192 33.1839 92.6631 32.6799C91.823 32.0918 90.8149 31.7557 89.8067 31.6717C89.2187 31.5877 88.5466 31.6717 87.9585 31.5877C87.0344 31.6717 86.1103 31.6717 85.1862 31.6717Z" fill="#174038"/>
<path fill-rule="evenodd" clip-rule="evenodd" d="M104.845 28.8994C108.625 28.8994 112.405 28.8994 116.186 28.8994C116.186 29.8235 116.186 30.7476 116.186 31.6717C113.414 31.6717 110.725 31.6717 107.953 31.6717C107.953 33.1839 107.953 34.6121 107.953 36.1243C110.389 36.1243 112.825 36.1243 115.262 36.1243C115.262 37.0484 115.262 37.9725 115.262 38.8966C112.825 38.8966 110.389 38.8966 107.953 38.8966C107.953 40.8288 107.953 42.761 107.953 44.6093C110.725 44.6093 113.414 44.6093 116.186 44.6093C116.186 45.5334 116.186 46.4575 116.186 47.3816C112.405 47.3816 108.625 47.3816 104.845 47.3816C104.845 41.2489 104.845 35.1161 104.845 28.8994Z" fill="#174038"/>
<path fill-rule="evenodd" clip-rule="evenodd" d="M125.595 28.8994C127.947 28.8994 130.216 28.8994 132.568 28.8994C133.744 28.8994 134.92 29.0674 135.928 29.6555C136.768 30.0755 137.44 30.6636 137.944 31.4197C138.533 32.3438 138.785 33.4359 138.701 34.5281C138.701 35.6202 138.533 36.7963 137.944 37.7204C137.524 38.4765 136.852 38.9806 136.096 39.3166C135.508 39.5687 134.92 39.7367 134.332 39.8207C136.6 42.341 138.785 44.8613 141.053 47.4656C139.877 47.4656 138.617 47.4656 137.44 47.4656C135.256 44.9453 133.156 42.425 130.972 39.9887C130.215 39.9887 129.459 39.9887 128.787 39.9887C128.787 42.509 128.787 45.0293 128.787 47.4656C127.695 47.4656 126.687 47.4656 125.595 47.4656C125.595 41.2489 125.595 35.1161 125.595 28.8994ZM128.787 31.6717C128.787 33.52 128.787 35.4522 128.787 37.3004C130.047 37.3004 131.224 37.3004 132.484 37.3004C133.324 37.3004 134.164 37.0484 134.836 36.4603C135.256 36.0402 135.508 35.5362 135.592 34.9481C135.676 34.276 135.592 33.4359 135.172 32.8479C134.836 32.2598 134.164 31.9238 133.492 31.7557C132.82 31.5877 132.148 31.5877 131.476 31.5877C130.552 31.6717 129.711 31.6717 128.787 31.6717Z" fill="#174038"/>
</g>
<defs>
<clipPath id="clip0_155_3346">
<rect width="152" height="48" fill="white"/>
</clipPath>
</defs>
</svg>
